<svg width="30" height="30" viewBox="0 0 30 30" fill="none" xmlns="http://www.w3.org/2000/svg">
<g id="mail">
<g id="Vector">
<path fill-rule="evenodd" clip-rule="evenodd" d="M6.2501 7.1875C5.38715 7.1875 4.6876 7.88705 4.6876 8.75V21.25C4.6876 22.1129 5.38715 22.8125 6.2501 22.8125H23.7501C24.613 22.8125 25.3126 22.1129 25.3126 21.25V8.75C25.3126 7.88705 24.613 7.1875 23.7501 7.1875H6.2501ZM2.8126 8.75C2.8126 6.85152 4.35162 5.3125 6.2501 5.3125H23.7501C25.6486 5.3125 27.1876 6.85152 27.1876 8.75V21.25C27.1876 23.1485 25.6486 24.6875 23.7501 24.6875H6.2501C4.35162 24.6875 2.8126 23.1485 2.8126 21.25V8.75Z" fill="#344054"/>
<path fill-rule="evenodd" clip-rule="evenodd" d="M2.97005 8.22997C3.25726 7.79916 3.83932 7.68275 4.27013 7.96995L15.0001 15.1233L25.7301 7.96995C26.1609 7.68275 26.7429 7.79916 27.0301 8.22997C27.3174 8.66078 27.2009 9.24284 26.7701 9.53005L15.5201 17.03C15.2052 17.24 14.795 17.24 14.4801 17.03L3.23007 9.53005C2.79926 9.24284 2.68285 8.66078 2.97005 8.22997Z" fill="#344054"/>
</g>
</g>
</svg>
