<svg width="20" height="20" viewBox="0 0 20 20" fill="none" xmlns="http://www.w3.org/2000/svg">
<g id="Search">
<g id="Vector">
<path fill-rule="evenodd" clip-rule="evenodd" d="M9.8059 2.94C6.0142 2.94 2.94043 6.01378 2.94043 9.80547C2.94043 13.5972 6.0142 16.6709 9.8059 16.6709C13.5976 16.6709 16.6714 13.5972 16.6714 9.80547C16.6714 6.01378 13.5976 2.94 9.8059 2.94ZM1.69043 9.80547C1.69043 5.32342 5.32385 1.69 9.8059 1.69C14.2879 1.69 17.9214 5.32342 17.9214 9.80547C17.9214 14.2875 14.2879 17.9209 9.8059 17.9209C5.32385 17.9209 1.69043 14.2875 1.69043 9.80547Z" fill="#344054"/>
<path fill-rule="evenodd" clip-rule="evenodd" d="M14.5731 14.9629C14.8169 14.7185 15.2126 14.718 15.457 14.9617L18.3937 17.8908C18.6381 18.1346 18.6386 18.5303 18.3949 18.7747C18.1511 19.0191 17.7554 19.0196 17.511 18.7758L14.5743 15.8468C14.3299 15.603 14.3294 15.2073 14.5731 14.9629Z" fill="#344054"/>
</g>
</g>
</svg>
