<svg width="27" height="26" viewBox="0 0 27 26" fill="none" xmlns="http://www.w3.org/2000/svg">
<g id="user">
<path id="user_2" d="M13.5101 11.6458C10.9708 11.6458 8.90594 9.57992 8.90594 7.04167C8.90594 4.50342 10.9708 2.4375 13.5101 2.4375C16.0494 2.4375 18.1143 4.50342 18.1143 7.04167C18.1143 9.57992 16.0494 11.6458 13.5101 11.6458ZM13.5101 4.0625C11.8667 4.0625 10.5309 5.39825 10.5309 7.04167C10.5309 8.68508 11.8667 10.0208 13.5101 10.0208C15.1535 10.0208 16.4893 8.68508 16.4893 7.04167C16.4893 5.39825 15.1524 4.0625 13.5101 4.0625ZM17.8304 23.5625H9.1703C6.54863 23.5625 5.10449 22.1271 5.10449 19.5206C5.10449 16.6379 6.73599 13.2708 11.3337 13.2708H15.667C20.2647 13.2708 21.8962 16.6368 21.8962 19.5206C21.8962 22.1271 20.452 23.5625 17.8304 23.5625ZM11.3337 14.8958C7.06208 14.8958 6.72949 18.4351 6.72949 19.5206C6.72949 21.215 7.45971 21.9375 9.1703 21.9375H17.8304C19.5409 21.9375 20.2712 21.215 20.2712 19.5206C20.2712 18.4362 19.9386 14.8958 15.667 14.8958H11.3337Z" fill="#003366"/>
</g>
</svg>
