<svg width="27" height="26" viewBox="0 0 27 26" fill="none" xmlns="http://www.w3.org/2000/svg">
<g id="user-check-bottom">
<path id="user-check-bottom_2" d="M12.4261 11.6458C9.88679 11.6458 7.82196 9.57992 7.82196 7.04167C7.82196 4.50342 9.88679 2.4375 12.4261 2.4375C14.9655 2.4375 17.0303 4.50342 17.0303 7.04167C17.0303 9.57992 14.9655 11.6458 12.4261 11.6458ZM12.4261 4.0625C10.7827 4.0625 9.44696 5.39825 9.44696 7.04167C9.44696 8.68508 10.7827 10.0208 12.4261 10.0208C14.0695 10.0208 15.4053 8.68508 15.4053 7.04167C15.4053 5.39825 14.0685 4.0625 12.4261 4.0625ZM16.4788 22.75C16.4788 22.3015 16.1148 21.9375 15.6663 21.9375H8.08301C6.37459 21.9375 5.64551 21.2149 5.64551 19.5217C5.64551 18.4373 5.97809 14.8958 10.2497 14.8958H14.583C16.3553 14.8958 17.6413 15.4993 18.4061 16.6888C18.6488 17.0669 19.1514 17.1762 19.5284 16.9336C19.9064 16.6909 20.0149 16.1882 19.7733 15.8112C19.0279 14.6521 17.5243 13.2708 14.583 13.2708H10.2497C5.65201 13.2708 4.02051 16.6379 4.02051 19.5217C4.02051 22.1271 5.46351 23.5625 8.08301 23.5625H15.6663C16.1148 23.5625 16.4788 23.1985 16.4788 22.75ZM20.9346 22.9634L23.8239 20.0742C24.1413 19.7568 24.1413 19.2422 23.8239 18.9247C23.5065 18.6073 22.9918 18.6073 22.6744 18.9247L20.3594 21.2387L19.4895 20.3688C19.1721 20.0514 18.6574 20.0514 18.34 20.3688C18.0226 20.6863 18.0226 21.2009 18.34 21.5183L19.7841 22.9624C19.9423 23.1206 20.1503 23.2007 20.3583 23.2007C20.5663 23.2007 20.7765 23.1216 20.9346 22.9634Z" fill="#4E36E2"/>
</g>
</svg>
