<svg width="27" height="26" viewBox="0 0 27 26" fill="none" xmlns="http://www.w3.org/2000/svg">
<g id="user-shield">
<path id="user-shield_2" d="M11.3431 11.6458C8.80379 11.6458 6.73895 9.57992 6.73895 7.04167C6.73895 4.50342 8.80379 2.4375 11.3431 2.4375C13.8825 2.4375 15.9473 4.50342 15.9473 7.04167C15.9473 9.57992 13.8825 11.6458 11.3431 11.6458ZM11.3431 4.0625C9.6997 4.0625 8.36395 5.39825 8.36395 7.04167C8.36395 8.68508 9.6997 10.0208 11.3431 10.0208C12.9865 10.0208 14.3223 8.68508 14.3223 7.04167C14.3223 5.39825 12.9855 4.0625 11.3431 4.0625ZM13.5 23.5625H7C4.3805 23.5625 2.9375 22.1271 2.9375 19.5217C2.9375 16.6379 4.569 13.2708 9.16667 13.2708H13.5C13.9561 13.2708 14.3526 13.299 14.7123 13.3575C15.1554 13.4279 15.4576 13.845 15.385 14.288C15.3146 14.7311 14.8888 15.0324 14.4544 14.9609C14.1814 14.9165 13.8694 14.8958 13.5 14.8958H9.16667C4.89508 14.8958 4.5625 18.4373 4.5625 19.5217C4.5625 21.2149 5.29158 21.9375 7 21.9375H13.5C13.9485 21.9375 14.3125 22.3015 14.3125 22.75C14.3125 23.1985 13.9485 23.5625 13.5 23.5625ZM20.4647 24.6458C20.3748 24.6458 20.2849 24.6307 20.1993 24.6014C18.1399 23.8897 15.9375 22.0491 15.9375 19.019V16.6118C15.9375 16.2511 16.1758 15.9337 16.5214 15.8318C18.4107 15.2783 19.2926 14.8601 20.1008 14.4441C20.3359 14.3238 20.6142 14.3238 20.8482 14.4462C21.6466 14.8633 22.5199 15.2782 24.3832 15.7614C24.7407 15.8545 24.992 16.1774 24.992 16.5479V19.018C24.992 22.0481 22.7906 23.8886 20.7301 24.6003C20.6445 24.6307 20.5546 24.6458 20.4647 24.6458ZM17.5625 17.2152V19.019C17.5625 21.4999 19.6175 22.6113 20.4647 22.9645C21.3108 22.6124 23.367 21.4988 23.367 19.019V17.1708C22.1039 16.8155 21.2794 16.4807 20.4701 16.0777C19.6609 16.4764 18.8365 16.8187 17.5625 17.2152Z" fill="#1BCF85"/>
</g>
</svg>
