<svg width="81" height="56" viewBox="0 0 81 56" fill="none" xmlns="http://www.w3.org/2000/svg">
<g id="Payment Icons">
<rect width="81" height="56" rx="6" fill="white"/>
<path id="ApplePay" fill-rule="evenodd" clip-rule="evenodd" d="M22.3552 19.4673C21.6677 20.2884 20.5678 20.9361 19.4679 20.8435C19.3304 19.7333 19.8689 18.5537 20.4991 17.8252C21.1865 16.9809 22.3895 16.3796 23.3634 16.3333C23.478 17.4898 23.0312 18.6231 22.3552 19.4673ZM23.3519 21.0633C22.3829 21.007 21.4987 21.3574 20.7845 21.6405C20.325 21.8226 19.9358 21.9769 19.6397 21.9769C19.3074 21.9769 18.9022 21.8144 18.4472 21.6319C17.851 21.3929 17.1693 21.1195 16.4545 21.1327C14.8161 21.1558 13.2923 22.0925 12.4559 23.5844C10.7373 26.5681 12.0091 30.9858 13.6704 33.4144C14.4839 34.6171 15.4577 35.9355 16.741 35.8892C17.3055 35.8677 17.7116 35.6938 18.1319 35.5138C18.6157 35.3065 19.1184 35.0912 19.9032 35.0912C20.6608 35.0912 21.1415 35.3009 21.6029 35.5022C22.0416 35.6936 22.4629 35.8774 23.0884 35.8661C24.4174 35.843 25.2538 34.6634 26.0673 33.4606C26.9451 32.1698 27.3309 30.91 27.3895 30.7188L27.3963 30.6967C27.3949 30.6952 27.3841 30.6902 27.3649 30.6814L27.3649 30.6814C27.0715 30.5458 24.8285 29.5093 24.807 26.73C24.7854 24.3971 26.586 23.2151 26.8695 23.0291C26.8868 23.0178 26.8984 23.0101 26.9037 23.0061C25.7579 21.2946 23.9706 21.1095 23.3519 21.0633ZM32.5522 35.7389V17.7095H39.2548C42.7149 17.7095 45.1324 20.115 45.1324 23.6306C45.1324 27.1463 42.6691 29.5749 39.1632 29.5749H35.3249V35.7389H32.5522ZM35.3247 20.0687H38.5213C40.9273 20.0687 42.3022 21.3639 42.3022 23.6422C42.3022 25.9204 40.9273 27.2272 38.5098 27.2272H35.3247V20.0687ZM54.287 33.5763C53.5537 34.9872 51.9382 35.8777 50.1967 35.8777C47.6188 35.8777 45.82 34.328 45.82 31.9919C45.82 29.679 47.5615 28.349 50.7811 28.1524L54.2412 27.9443V26.9497C54.2412 25.481 53.2902 24.683 51.5945 24.683C50.1967 24.683 49.177 25.4116 48.9708 26.5218H46.4731C46.5533 24.1858 48.7302 22.4857 51.6747 22.4857C54.8484 22.4857 56.9108 24.1626 56.9108 26.7647V35.7389H54.3443V33.5763H54.287ZM50.9413 33.7382C49.4633 33.7382 48.5238 33.0212 48.5238 31.9225C48.5238 30.7892 49.4289 30.13 51.159 30.0259L54.241 29.8293V30.847C54.241 32.5355 52.8203 33.7382 50.9413 33.7382ZM65.4235 36.4443C64.3121 39.6015 63.0403 40.6423 60.3364 40.6423C60.1302 40.6423 59.4427 40.6192 59.2823 40.5729V38.4103C59.4542 38.4335 59.8781 38.4566 60.0958 38.4566C61.3217 38.4566 62.0092 37.9362 62.4331 36.5831L62.6852 35.7852L57.9876 22.6592H60.8863L64.1517 33.3103H64.209L67.4743 22.6592H70.2929L65.4235 36.4443Z" fill="black"/>
</g>
</svg>
