<svg width="81" height="56" viewBox="0 0 81 56" fill="none" xmlns="http://www.w3.org/2000/svg">
<g id="Payment Icons">
<rect width="81" height="56" rx="6" fill="white"/>
<path id="Citadele" d="M10.1928 25.2184C9.64623 25.2184 9.59233 25.0405 9.59233 23.7438V23.5225C9.59233 22.2213 9.64623 22.0452 10.1928 22.0452H22.6905C23.239 22.0452 23.2929 22.2213 23.2929 23.5207V23.742C23.2929 25.0405 23.238 25.2176 22.6905 25.2176H10.1928V25.2184ZM10.1928 19.5083C9.64623 19.5083 9.59233 19.3313 9.59233 18.0328V17.8115C9.59233 16.5086 9.64623 16.3333 10.1928 16.3333H22.6905C23.239 16.3333 23.2929 16.5103 23.2929 17.8115V18.0328C23.2929 19.3313 23.238 19.5083 22.6905 19.5083H10.1928ZM12.065 36.466C12.065 34.3169 13.1837 33.1352 14.8668 33.1352C15.5022 33.1352 16.0109 33.3087 16.6473 33.6052C16.878 33.715 17.069 33.6707 17.3716 32.9989L17.592 32.5422C17.8094 31.9916 17.8255 31.7641 17.5617 31.642C16.7816 31.2144 15.5741 30.9445 14.5311 30.9445C11.5591 30.9445 9.31055 33.1485 9.31055 36.466C9.31055 39.7827 11.5591 41.9867 14.5302 41.9867C15.5741 41.9867 16.809 41.7176 17.592 41.2874C17.8529 41.1679 17.8359 40.9378 17.6203 40.3872L17.4028 39.9048C17.1003 39.2321 16.9083 39.1941 16.6757 39.2985C16.0393 39.5968 15.5032 39.7703 14.8668 39.7703C13.1837 39.7703 12.0679 38.6143 12.0679 36.466H12.066H12.065ZM47.4771 41.4786C47.4771 41.7707 47.3598 41.8504 46.4776 41.8504H46.3897C45.4601 41.8504 45.3306 41.8106 45.2578 41.5972C45.2091 41.4525 45.1702 41.3049 45.1415 41.1556C44.6498 41.7061 44.0569 42 43.1539 42C40.9639 42 39.6477 40.4952 39.6477 38.0752C39.6477 35.4596 41.1124 33.9106 43.2844 33.9106C43.8962 33.9106 44.4597 34.0876 44.8947 34.4098V31.0109C44.8947 30.7834 44.9231 30.6887 46.1429 30.6887H46.2308C47.3598 30.6887 47.4761 30.7834 47.4761 31.0109V41.4786H47.4771ZM44.8956 36.3182C44.7465 36.1656 44.5651 36.0439 44.3629 35.9607C44.1606 35.8774 43.9421 35.8346 43.7212 35.8349C42.7492 35.8349 42.2877 36.6254 42.2877 38.077C42.2877 38.909 42.4759 39.4375 42.7492 39.7145C42.995 40.0004 43.3732 40.0925 43.7373 40.0925C44.1865 40.0925 44.5335 39.9889 44.6942 39.7969C44.837 39.6499 44.8947 39.4224 44.8947 38.8984V36.3173L44.8966 36.3182H44.8956ZM60.6358 41.5317C60.6358 41.7575 60.5195 41.8504 59.3876 41.8504H59.3006C58.0827 41.8504 58.0572 41.7575 58.0572 41.5317V31.0109C58.0572 30.7834 58.0827 30.6887 59.2997 30.6887H59.3867C60.5176 30.6887 60.6348 30.7834 60.6348 31.0109V41.5317H60.6358ZM51.5544 38.7347C51.6982 39.688 52.3355 40.1465 53.3368 40.1465C54.1075 40.1465 54.829 39.9872 55.6724 39.6499C55.8483 39.5835 56.0062 39.6499 56.1925 40.1837L56.3249 40.4828C56.5112 41.0334 56.4951 41.1556 56.2946 41.2609C55.2923 41.784 54.2493 41.9982 53.0891 41.9982C50.5247 41.9982 48.9162 40.5377 48.9162 38.0372C48.9162 35.6057 50.3942 33.9106 52.9312 33.9106C55.4408 33.9106 56.7287 35.5782 56.7287 37.8885C56.7287 38.655 56.6577 38.7347 56.3674 38.7347H51.5544ZM54.1472 37.245C54.1075 36.4412 53.7595 35.7402 52.9038 35.7402C52.1615 35.7402 51.6244 36.2624 51.5232 37.245H54.1472ZM64.6526 38.7347C64.7945 39.688 65.4337 40.1465 66.436 40.1465C67.2 40.1465 67.9281 39.9872 68.7687 39.6499C68.9408 39.5835 69.1035 39.6499 69.2907 40.1837L69.4221 40.4828C69.6084 41.0334 69.5933 41.1556 69.3938 41.2609C68.3915 41.784 67.3466 41.9982 66.1854 41.9982C63.6201 41.9982 62.0135 40.5377 62.0135 38.0372C62.0135 35.6057 63.4886 33.9106 66.0266 33.9106C68.538 33.9106 69.8278 35.5782 69.8278 37.8885C69.8278 38.655 69.755 38.7347 69.4647 38.7347H64.6517H64.6526ZM67.2483 37.245C67.201 36.4412 66.8558 35.7402 66.0001 35.7402C65.2606 35.7402 64.7217 36.2624 64.6214 37.245H67.2483ZM35.5211 36.3713C35.3905 36.2099 35.2218 36.0789 35.0284 35.9883C34.8349 35.8977 34.6217 35.8501 34.4053 35.8491C33.4333 35.8491 32.9709 36.6413 32.9709 38.0505C32.9709 39.2454 33.3151 40.1332 34.3741 40.1332C34.7675 40.1332 35.055 40.0394 35.2602 39.8491C35.4474 39.6632 35.5211 39.4065 35.5211 38.8453V36.3713ZM38.1309 41.4786C38.1309 41.7707 38.0165 41.8504 37.1324 41.8504H37.0133C36.0866 41.8504 35.9561 41.8106 35.8842 41.5972C35.8345 41.4527 35.7956 41.3051 35.7679 41.1556C35.2762 41.7061 34.6805 42 33.7803 42C31.6783 42 30.3289 40.52 30.3289 38.1053C30.3289 35.4189 31.997 33.9106 33.9694 33.9106C34.7675 33.9106 35.4616 34.2222 35.8398 34.6648L35.8842 34.3284C35.8965 34.1691 35.9429 34.0629 36.896 34.0629H36.9991C37.9863 34.0629 38.1291 34.1275 38.1291 34.3727V41.4786H38.1309ZM26.0284 31.7924C26.9986 31.7924 27.0572 31.804 27.0572 32.0996V34.0611H28.7262C28.9569 34.0611 29.0288 34.1009 29.0288 34.8391V34.948C29.0288 35.6844 28.9569 35.7269 28.7262 35.7269H27.0572V39.2472C27.0572 39.8367 27.1716 40.1465 27.7513 40.1465C28.0539 40.1465 28.3186 40.0925 28.5796 40.0137C28.8538 39.9155 28.9579 40.0394 29.1451 40.6554L29.1886 40.8033C29.3909 41.4786 29.3314 41.5317 29.0732 41.6504C28.5513 41.8787 27.8534 42 27.2019 42C25.1434 42 24.5637 41.0334 24.5637 39.3516V35.7269H23.5917C23.3458 35.7269 23.2844 35.6827 23.2844 34.948V34.8391C23.2844 34.1009 23.3449 34.0629 23.5917 34.0629H24.6791C24.7973 33.4317 24.9978 32.5431 25.1292 32.0996C25.202 31.8438 25.2455 31.7924 26.0284 31.7924ZM20.6348 34.0629C21.7667 34.0629 21.8669 34.154 21.8669 34.3842V41.5317C21.8669 41.7707 21.7667 41.8504 20.6348 41.8504H20.5611C19.3158 41.8504 19.2874 41.7707 19.2874 41.5317V34.3842C19.2874 34.154 19.3158 34.0629 20.5611 34.0629H20.6348ZM20.5611 30.5692C21.3781 30.5692 21.97 31.1596 21.97 31.8305C21.9664 31.9986 21.927 32.1644 21.8543 32.3182C21.7816 32.472 21.6769 32.6107 21.5464 32.7263C21.2816 32.9608 20.927 33.0883 20.5611 33.0803C19.7536 33.0803 19.155 32.4899 19.155 31.8305C19.155 31.1578 19.7536 30.5692 20.5611 30.5692Z" fill="#EE293D"/>
</g>
</svg>
