<svg width="57" height="25" viewBox="0 0 57 25" fill="none" xmlns="http://www.w3.org/2000/svg">
<g id="GooglePay">
<g id="Pay">
<path id="Union" fill-rule="evenodd" clip-rule="evenodd" d="M26.3765 19.2319V12.3844H29.9019C31.3465 12.3844 32.5659 11.8992 33.5599 10.9421L33.7984 10.6995C35.6142 8.71803 35.4949 5.63125 33.5599 3.79806C32.5924 2.82754 31.267 2.30185 29.9019 2.32881H24.2427V19.2319H26.3765ZM26.3767 10.3085V4.4045H29.9557C30.7246 4.4045 31.4536 4.70104 31.9971 5.24022C33.1503 6.37248 33.1768 8.25959 32.0634 9.4323C31.5199 10.0119 30.7511 10.3354 29.9557 10.3085H26.3767ZM43.7518 8.5697C42.8374 7.7205 41.5915 7.28916 40.0144 7.28916C37.9866 7.28916 36.4624 8.044 35.4552 9.54021L37.3372 10.7399C38.0263 9.71544 38.9673 9.20323 40.1602 9.20323C40.9156 9.20323 41.6445 9.48629 42.2144 9.99851C42.7711 10.4838 43.0892 11.1847 43.0892 11.9261V12.4248C42.2675 11.9665 41.2337 11.7239 39.9614 11.7239C38.477 11.7239 37.2842 12.0743 36.3962 12.7887C35.5082 13.5031 35.0576 14.4467 35.0576 15.6464C35.0311 16.7382 35.4949 17.7761 36.3167 18.477C37.1516 19.2319 38.2119 19.6093 39.4577 19.6093C40.9289 19.6093 42.0952 18.9488 42.9831 17.6278H43.0759V19.2319H45.117V12.1013C45.117 10.6051 44.6663 9.4189 43.7518 8.5697ZM37.9604 17.1022C37.523 16.7787 37.2579 16.253 37.2579 15.6868C37.2579 15.0533 37.5495 14.5276 38.1195 14.1098C38.7027 13.6919 39.4318 13.4762 40.2934 13.4762C41.4864 13.4627 42.4143 13.7323 43.0771 14.2715C43.0771 15.1881 42.7192 15.9834 42.0166 16.6574C41.3804 17.3044 40.5188 17.6683 39.6174 17.6683C39.0209 17.6818 38.4376 17.4796 37.9604 17.1022ZM49.7027 24.3136L56.8331 7.66657H54.5137L51.2136 15.9699H51.1738L47.7942 7.66657H45.4748L50.1533 18.4905L47.5026 24.3136H49.7027Z" fill="#3C4043"/>
</g>
<g id="G">
<path id="Blue" d="M19.0097 10.9017C19.0097 10.2412 18.9567 9.58073 18.8507 8.93372H9.85156V12.6675H15.0072C14.7951 13.8672 14.1059 14.9455 13.0987 15.6195V18.0458H16.1735C17.9759 16.3608 19.0097 13.8672 19.0097 10.9017Z" fill="#4285F4"/>
<path id="Green" d="M9.85206 20.3913C12.4232 20.3913 14.5968 19.5286 16.174 18.0459L13.0992 15.6196C12.2377 16.2127 11.1376 16.5496 9.85206 16.5496C7.36041 16.5496 5.25311 14.8378 4.49766 12.5463H1.33008V15.0534C2.947 18.3289 6.24712 20.3913 9.85206 20.3913Z" fill="#34A853"/>
<path id="Yellow" d="M4.49775 12.5463C4.10008 11.3466 4.10008 10.0391 4.49775 8.82596V6.33228H1.32966C-0.0356676 9.06859 -0.0356676 12.3036 1.32966 15.0399L4.49775 12.5463Z" fill="#FBBC04"/>
<path id="Red" d="M9.85206 4.82255C11.2172 4.7956 12.5293 5.32129 13.51 6.27833L16.2402 3.50158C14.504 1.85709 12.2244 0.953975 9.85206 0.980933C6.24712 0.980933 2.947 3.05676 1.33008 6.33224L4.49766 8.83941C5.25311 6.53443 7.36041 4.82255 9.85206 4.82255Z" fill="#EA4335"/>
</g>
</g>
</svg>
