<svg width="141" height="64" viewBox="0 0 141 64" fill="none" xmlns="http://www.w3.org/2000/svg">
<g id="Frame" clip-path="url(#clip0_347_12268)">
<g id="Group">
<g id="Group_2">
<g id="Group_3">
<g id="Group_4">
<path id="Vector" d="M30.2662 26.9037V23.0803H15.1104V44.1376H19.0896V36.335H29.6641V32.6602H19.0896V26.9037H30.2662Z" fill="#11416C"/>
</g>
<g id="Group_5">
<path id="Vector_2" d="M36.3837 23.0803H32.7373V44.1376H36.3837V23.0803Z" fill="#11416C"/>
</g>
<g id="Group_6">
<path id="Vector_3" d="M54.8812 29.2864H50.8135L48.1016 35.7931L46.5651 39.8893L45.1491 35.7014L42.8903 29.2864H38.6102L44.547 43.897L38.4827 58.2526L36.2666 63.4993C37.7216 63.3044 39.1697 63.0674 40.6104 62.7982L43.0636 57.0311L54.8812 29.2864Z" fill="#11416C"/>
</g>
<g id="Group_7">
<path id="Vector_4" d="M62.9242 41.4576C61.2675 41.4259 58.8565 40.5515 57.8014 39.3794L55.9961 41.9991C58.1664 44.2579 60.5132 44.6509 62.8642 44.6509C67.1126 44.6509 69.2508 42.3921 69.2508 39.7688C69.2508 35.8216 65.6966 35.1911 62.8963 35.0109C60.9951 34.8908 60.1244 34.3455 60.1244 33.3826C60.1244 32.4481 61.0873 31.9065 62.8362 31.9065C64.2522 31.9065 65.4559 32.2394 66.511 33.234L68.557 30.823C66.8402 29.3149 65.0945 28.8655 62.7757 28.8655C60.0638 28.8655 56.5097 30.0692 56.5097 33.5032C56.5097 36.8772 59.8515 37.9039 62.6555 38.1125C64.7621 38.2326 65.6044 38.654 65.6044 39.6807C65.604 40.7638 64.3118 41.486 62.9242 41.4576Z" fill="#11416C"/>
</g>
<g id="Group_8">
<path id="Vector_5" d="M91.1855 44.1376H94.8603V36.1227C94.8603 31.6657 92.7821 29.074 88.5622 29.074C86.6363 29.074 84.9195 29.6761 83.5915 31.7858C82.7492 29.7361 80.9719 29.0139 79.1945 29.0139C77.7786 29.0139 76.0613 29.5555 75.2754 31.0636L75.0062 29.2547H71.6006V44.1376H75.2754V36.1865C75.2754 34.2253 76.4506 32.448 78.4402 32.448C80.4583 32.448 81.485 34.2253 81.485 36.1865V44.1376H85.1598V36.1865C85.1598 34.2253 86.3951 32.508 88.3815 32.508C90.3711 32.508 91.1855 34.1648 91.1855 36.1227V44.1376Z" fill="#11416C"/>
</g>
<g id="Group_9">
<g id="Group_10">
<path id="Vector_6" d="M105.436 44.5911C107.09 44.5595 109.416 43.7167 110.258 41.9682L110.439 44.1358H113.904V29.2867H110.376L110.259 31.3327C109.416 29.8549 107.515 28.9263 105.527 28.9263C101.188 28.8947 97.7852 31.5762 97.7852 36.6954C97.7842 41.905 101.038 44.6182 105.436 44.5911ZM105.86 32.2072C111.642 32.2072 111.642 41.2158 105.86 41.2158C103.417 41.2158 101.457 39.5301 101.457 36.6959C101.457 33.8657 103.417 32.2072 105.86 32.2072Z" fill="#11416C"/>
</g>
</g>
<g id="Group_11">
<path id="Vector_7" d="M120.683 36.3066C120.683 33.5631 122.46 32.5397 124.386 32.5397C125.593 32.5397 126.287 32.8689 127.038 33.5026L128.694 30.3093C127.884 29.4949 126.408 28.8933 124.871 28.8933C123.363 28.8933 121.826 29.1661 120.683 31.0031L120.411 29.2863H117.009V44.1376H120.684V36.3066H120.683Z" fill="#11416C"/>
</g>
<g id="Group_12">
<path id="Vector_8" d="M26.9982 59.2863C23.9608 58.9818 20.9692 58.4329 18.151 57.2788C13.7008 55.4593 10.2278 52.4108 7.73929 48.3078C4.29837 42.6255 3.28591 36.4553 4.47858 29.966C5.67171 23.5014 8.8508 18.202 14.2529 14.3429C17.2229 12.2222 20.551 10.9336 24.1015 10.1514C23.1739 10.2151 22.2499 10.3036 21.3402 10.4701C14.2029 11.7907 8.56376 15.4407 4.59138 21.5191C0.825354 27.2899 -0.604846 33.655 0.230622 40.4983C1.03766 47.1362 3.95492 52.68 9.07778 57.0238C15.9564 62.8579 24.0424 64.5256 32.7937 63.8635C33.2789 63.8281 33.7635 63.7855 34.2487 63.7323L36.3694 58.709C33.3032 59.311 30.1984 59.6082 26.9982 59.2863Z" fill="#FABE97"/>
</g>
<g id="Group_13">
<path id="Vector_9" d="M69.6967 52.5915C65.6574 51.9367 61.6355 52.2338 57.7025 53.1509C53.5284 54.1244 49.3832 55.2432 45.2553 56.4079L42.71 62.3837C44.2144 62.0723 45.7121 61.7394 47.2133 61.396C53.4972 59.9585 59.7243 58.2417 66.1709 57.6222C69.4917 57.3035 72.8052 57.3035 76.0622 58.0931C77.574 58.4576 79.0395 59.0028 80.5298 59.4701C80.4097 59.2789 80.2822 59.0666 80.1405 58.8648C77.563 55.2643 74.0121 53.2889 69.6967 52.5915Z" fill="#FABE97"/>
</g>
<g id="Group_14">
<path id="Vector_10" d="M24.7812 9.93345L24.484 13.6188C24.4762 13.7178 24.5615 13.799 24.6601 13.7857L25.1375 13.7219C25.1806 13.716 25.2205 13.6921 25.2461 13.6568L27.128 10.9257L33.0373 10.7497L30.3048 18.727L33.0065 17.3385L36.4534 10.2746L39.6619 9.81286C40.3648 9.71106 41.0494 9.48866 41.6616 9.12687C42.1004 8.86779 42.5406 8.51884 42.8121 8.06901C43.0221 7.72143 42.9634 7.28398 42.6699 7.00335C42.2898 6.64064 41.7739 6.41917 41.2824 6.28527C40.5964 6.09635 39.8778 6.0615 39.1726 6.14771L35.9554 6.54389L30.7762 0.630957L27.8053 0L32.5342 6.98043L26.7859 8.36156L24.2538 6.2197C24.2195 6.19081 24.175 6.17797 24.1314 6.18393L23.6541 6.24767C23.5555 6.26097 23.494 6.36185 23.528 6.45539L24.7812 9.93345Z" fill="#11416C"/>
</g>
<g id="Group_15">
<path id="Vector_11" d="M34.9824 4.01503C35.2392 3.98064 35.4213 3.74265 35.3869 3.48587L35.2635 2.56144C35.2291 2.30466 34.9911 2.12261 34.7344 2.157L32.8594 2.40737L34.3428 4.10078L34.9824 4.01503Z" fill="#11416C"/>
</g>
<g id="Group_16">
<path id="Vector_12" d="M36.8307 14.3002L36.7073 13.3744C36.6729 13.1176 36.4349 12.9356 36.1782 12.97L35.538 13.0553L34.5508 15.0784L36.4271 14.828C36.6835 14.7936 36.8651 14.5561 36.8307 14.3002Z" fill="#11416C"/>
</g>
<g id="Group_17">
<path id="Vector_13" d="M114.904 55.4087H117.736L116.32 52.2241L114.904 55.4087Z" fill="#11416C"/>
</g>
<g id="Group_18">
<path id="Vector_14" d="M97.174 52.1187H95.7012V56.7577H97.174C98.8096 56.7577 99.4984 55.5522 99.4695 54.3761C99.4411 53.2471 98.7523 52.1187 97.174 52.1187Z" fill="#11416C"/>
</g>
<g id="Group_19">
<g id="Group_20">
<path id="Vector_15" d="M138.266 49.2734H93.1743C91.723 49.2734 90.5469 50.4496 90.5469 51.9009V56.8582C90.5469 58.3136 91.723 59.4898 93.1743 59.4898H138.266C139.722 59.4898 140.898 58.3136 140.898 56.8582V51.9009C140.898 50.4496 139.722 49.2734 138.266 49.2734ZM97.1719 57.7904H94.6394V51.0939H97.1719C99.4614 51.0939 100.502 52.7295 100.529 54.3835C100.57 56.0782 99.5151 57.7904 97.1719 57.7904ZM109.434 57.7904H104.49V51.0939H109.407V52.1393H105.563V53.9465H109.254V54.9378H105.563V56.7404H109.434V57.7904ZM118.767 57.7904L118.127 56.3845H114.504L113.873 57.7904H112.733L115.738 51.0939H116.901L119.907 57.7904H118.767ZM128.113 57.7904H123.512V51.0939H124.58V56.7945H128.113V57.7904ZM134.134 57.9436C132.854 57.9436 131.867 57.5515 131.259 56.4203L132.061 55.8884C132.539 56.6996 133.372 56.988 134.147 56.988C134.949 56.988 135.837 56.7174 135.837 55.8751C135.837 55.1497 135.062 54.9016 134.124 54.7755C132.795 54.5953 131.533 54.2619 131.533 52.8244C131.524 51.441 132.912 50.9045 134.115 50.9045C135.084 50.9045 136.048 51.1342 136.612 52.0311L135.801 52.5763C135.485 52.1169 134.841 51.8417 134.147 51.8326C133.245 51.8326 132.596 52.2022 132.596 52.8464C132.596 53.4953 133.34 53.6755 134.219 53.8016C135.598 53.9909 136.909 54.3738 136.909 55.8746C136.901 57.3805 135.531 57.9436 134.134 57.9436Z" fill="#11416C"/>
</g>
</g>
<g id="Group_21">
<path id="Vector_16" d="M140.024 41.0041H138.095C136.95 41.0041 136.166 40.3103 136.166 38.8952V32.4779H140.294V29.3144H136.193V25.1008L132.52 25.4929V29.3144H129.749V32.4779H132.52V38.8952C132.52 42.4058 134.418 44.2446 137.365 44.3166V44.3258H140.898V41.0045L140.024 41.0041Z" fill="#11416C"/>
</g>
</g>
</g>
</g>
</g>
<defs>
<clipPath id="clip0_347_12268">
<rect width="140.898" height="64" fill="white"/>
</clipPath>
</defs>
</svg>
