<svg width="53" height="32" viewBox="0 0 53 32" fill="none" xmlns="http://www.w3.org/2000/svg">
<g id="Mastercard">
<path id="Left" fill-rule="evenodd" clip-rule="evenodd" d="M26.9854 28.2686C24.2294 30.5974 20.6544 32.0032 16.748 32.0032C8.03146 32.0032 0.965332 25.004 0.965332 16.3699C0.965332 7.73585 8.03146 0.736572 16.748 0.736572C20.6544 0.736572 24.2294 2.1424 26.9854 4.47117C29.7413 2.1424 33.3163 0.736572 37.2227 0.736572C45.9393 0.736572 53.0054 7.73585 53.0054 16.3699C53.0054 25.004 45.9393 32.0032 37.2227 32.0032C33.3163 32.0032 29.7413 30.5974 26.9854 28.2686Z" fill="#ED0006"/>
<path id="Right" fill-rule="evenodd" clip-rule="evenodd" d="M26.9854 28.2686C30.3788 25.4012 32.5306 21.1345 32.5306 16.3699C32.5306 11.6053 30.3788 7.3386 26.9854 4.47116C29.7413 2.1424 33.3163 0.736572 37.2227 0.736572C45.9392 0.736572 53.0054 7.73585 53.0054 16.3699C53.0054 25.004 45.9392 32.0032 37.2227 32.0032C33.3163 32.0032 29.7413 30.5974 26.9854 28.2686Z" fill="#F9A000"/>
<path id="Middle" fill-rule="evenodd" clip-rule="evenodd" d="M26.9856 28.2686C30.3791 25.4012 32.5308 21.1345 32.5308 16.3699C32.5308 11.6054 30.3791 7.33869 26.9856 4.47125C23.5922 7.33869 21.4404 11.6054 21.4404 16.3699C21.4404 21.1345 23.5922 25.4012 26.9856 28.2686Z" fill="#FF5E00"/>
</g>
</svg>
