<svg width="61" height="22" viewBox="0 0 61 22" fill="none" xmlns="http://www.w3.org/2000/svg">
<g id="Payoneer">
<path id="Payoneer_2" fill-rule="evenodd" clip-rule="evenodd" d="M0.423915 15.9811L0.423918 15.9811C0.479829 15.6626 0.534004 15.354 0.596282 15.0453C0.860039 13.6493 1.12563 12.2551 1.39122 10.8609L1.39123 10.8609L1.39126 10.8607C1.65683 9.46658 1.9224 8.07247 2.18614 6.67652C2.22278 6.49971 2.27406 6.38184 2.4499 6.35237C3.81996 6.1461 5.19736 5.99876 6.56742 6.34501C7.76165 6.63968 8.59687 7.48688 8.73608 8.48141C9.02181 10.4631 7.87155 12.047 6.16446 12.6142C5.26329 12.9089 4.34748 12.9826 3.417 12.8942C3.19721 12.8721 3.13127 12.931 3.09464 13.1447C2.89682 14.2276 2.69168 15.3032 2.47921 16.3787C2.46455 16.4671 2.38396 16.6071 2.33267 16.6071C1.83478 16.6181 1.34505 16.6168 0.836036 16.6154H0.835959C0.663395 16.615 0.488615 16.6145 0.310547 16.6145C0.35084 16.3974 0.387741 16.1872 0.423915 15.9811ZM3.46097 11.1409C3.60421 11.1409 3.74293 11.1446 3.8781 11.1483H3.87811C4.16469 11.1561 4.4353 11.1635 4.69915 11.1335C5.46111 11.0525 6.06922 10.7062 6.41357 9.97689C6.80187 9.1518 6.52346 8.27514 5.79081 8.01729C5.27062 7.83312 4.73579 7.86996 4.20095 7.94362C4.13501 7.95099 4.04709 8.05413 4.03244 8.12043C3.93015 8.6594 3.82785 9.20067 3.72173 9.7622L3.72147 9.76356L3.72122 9.76488L3.72112 9.76544L3.72088 9.76672L3.72053 9.76854L3.72028 9.76989C3.63684 10.2114 3.55102 10.6655 3.46097 11.1409ZM12.9699 15.5624L12.9699 15.5624C12.7407 15.8199 12.5229 16.0645 12.2675 16.2609C11.4982 16.8576 10.619 16.9902 9.73251 16.5777C8.85332 16.1725 8.49432 15.3842 8.45769 14.456C8.3771 12.5038 9.05847 10.8904 10.6923 9.77063C11.718 9.06341 12.8976 8.84977 14.1211 8.91607C14.5258 8.94001 14.9275 9.01062 15.33 9.08139L15.33 9.08139C15.5469 9.11952 15.764 9.15769 15.9821 9.18864C16.2312 9.22548 16.2678 9.36545 16.2238 9.57909C16.1651 9.88695 16.1057 10.1945 16.0463 10.5018L16.0461 10.5026C15.8242 11.6512 15.6028 12.7971 15.4179 13.9477C15.3119 14.6063 15.2695 15.281 15.2277 15.9489C15.2204 16.0654 15.2131 16.1817 15.2054 16.2977C15.1908 16.5335 15.1322 16.6292 14.8904 16.6219C14.4362 16.6071 13.9819 16.6071 13.5277 16.6219C13.2932 16.6292 13.2126 16.5408 13.2346 16.3124C13.2555 16.06 13.269 15.8001 13.283 15.5301L13.283 15.5295C13.2886 15.4214 13.2943 15.3116 13.3005 15.2C13.1846 15.3213 13.076 15.4432 12.9699 15.5624ZM13.8134 10.6472C13.1027 10.4483 12.5093 10.5883 12.0111 11.0082C11.0733 11.8038 10.6483 12.8352 10.7289 14.0655C10.7509 14.4412 10.8974 14.8022 11.2931 14.9642C11.6887 15.1263 12.0477 15.0084 12.3554 14.7432C12.5386 14.5812 12.7144 14.397 12.8463 14.1907C13.3631 13.3976 13.5042 12.503 13.6476 11.5943L13.6476 11.5942C13.6974 11.2791 13.7474 10.9622 13.8134 10.6472ZM24.1951 14.7727C24.5981 16.0693 25.7044 16.7913 27.6459 16.7913C28.9793 16.7544 30.3054 15.9956 31.1333 14.4339C31.5729 13.594 31.7341 12.6953 31.6755 11.7523C31.6242 10.8462 31.2652 10.08 30.5326 9.53486C29.7633 8.96024 28.8841 8.84237 27.9463 8.94551C24.8105 9.29912 23.5284 12.6363 24.1951 14.7727ZM26.2816 13.6909C26.2824 13.6532 26.2832 13.6158 26.2832 13.5793C26.3051 12.7321 26.5103 11.9438 27.0158 11.244C27.2429 10.9346 27.5287 10.6988 27.9097 10.6104C28.6863 10.4336 29.3237 10.883 29.3969 11.7302C29.4849 12.7689 29.2358 13.7266 28.5837 14.5591C28.3346 14.8685 28.0196 15.0821 27.6166 15.119C26.8913 15.1853 26.3418 14.6917 26.2832 13.9182C26.2783 13.8443 26.2799 13.7671 26.2816 13.6911V13.691V13.691V13.691V13.6909ZM33.4193 9.10023H35.2802C35.2509 9.49805 35.2216 9.88112 35.185 10.2716C35.2528 10.208 35.3184 10.1453 35.3828 10.0837C35.5199 9.95256 35.6511 9.82701 35.7857 9.71169C36.5111 9.07813 37.339 8.79819 38.2987 8.95289C39.09 9.0855 39.6395 9.66748 39.7274 10.4852C39.823 11.3361 39.6642 12.1614 39.5058 12.985L39.471 13.1668C39.4067 13.5015 39.3431 13.8363 39.2796 14.1708L39.2794 14.1718C39.1403 14.9044 39.0014 15.6359 38.8556 16.364C38.8336 16.4598 38.7237 16.5997 38.6504 16.6071C38.0203 16.6218 37.3902 16.6145 36.7602 16.6071C36.739 16.6071 36.7179 16.5956 36.6858 16.5782C36.6764 16.5731 36.666 16.5674 36.6544 16.5614L36.6429 16.5555C36.7602 15.9441 36.8774 15.3253 36.9873 14.7064C37.1558 13.7561 37.317 12.8132 37.4635 11.8628C37.4928 11.7008 37.4782 11.5313 37.4562 11.3692C37.3976 10.802 36.98 10.5441 36.4378 10.7136C35.9103 10.883 35.5952 11.2956 35.3388 11.7523C34.9578 12.4227 34.826 13.1668 34.6941 13.9108C34.661 14.0953 34.6283 14.2794 34.5957 14.4633C34.4836 15.0946 34.372 15.7234 34.2472 16.3566C34.2252 16.4524 34.1153 16.5997 34.042 16.6071C33.5283 16.6247 33.0099 16.6236 32.4572 16.6224H32.4571H32.457C32.3161 16.6221 32.173 16.6218 32.0272 16.6218C32.5108 14.0876 32.965 11.605 33.4193 9.10023ZM43.9841 15.0748C43.2075 14.979 42.6873 14.4339 42.7386 13.6677C42.9006 13.6677 43.0618 13.6702 43.2221 13.6727C43.5404 13.6776 43.8554 13.6824 44.1672 13.6677C44.9219 13.6235 45.6619 13.4983 46.3506 13.152C47.2297 12.71 47.64 11.9807 47.5741 11.0304C47.5081 10.0653 46.988 9.36543 46.0575 9.08549C44.6654 8.66558 43.3833 8.96025 42.2916 9.89585C40.9655 11.0304 40.4673 12.5332 40.6578 14.2497C40.7897 15.4652 41.4491 16.3345 42.6507 16.6439C43.9401 16.9755 45.2076 16.7986 46.4311 16.2977C46.5191 16.2609 46.6216 16.1209 46.6143 16.0325C46.5967 15.673 46.5604 15.3134 46.524 14.9539C46.515 14.8641 46.5059 14.7742 46.4971 14.6843C46.473 14.6843 46.4551 14.6831 46.4414 14.6821C46.4217 14.6808 46.4105 14.68 46.4018 14.6843C46.3212 14.7138 46.2407 14.7433 46.1674 14.7727C45.464 15.0453 44.7387 15.1632 43.9841 15.0748ZM45.1196 11.8112C44.6727 12.0469 43.5151 12.1869 42.951 12.069C43.0682 11.0893 44.1012 10.3231 44.9731 10.5367C45.2662 10.6104 45.4786 10.7651 45.5299 11.0819C45.5812 11.3913 45.4273 11.6491 45.1196 11.8112ZM50.0578 13.6972C49.9919 14.4192 50.5048 14.9717 51.2887 15.0749C52.0214 15.1633 52.7247 15.0528 53.4134 14.8023C53.4768 14.7784 53.5381 14.7545 53.6053 14.7282L53.6055 14.7282C53.6625 14.7059 53.7238 14.682 53.7944 14.6549C53.8087 14.8109 53.8246 14.9637 53.8402 15.1144L53.8403 15.1149C53.8727 15.4268 53.9041 15.7297 53.9189 16.0326C53.9263 16.121 53.8237 16.2609 53.7431 16.2978C52.4976 16.8134 51.2154 16.9903 49.904 16.6293C48.7244 16.3051 48.109 15.4432 47.9625 14.2645C47.7793 12.7543 48.1676 11.3914 49.2153 10.2716C50.3436 9.07082 51.7283 8.64354 53.3255 9.08556C54.2999 9.35813 54.8201 10.0654 54.8787 11.0599C54.9373 12.0323 54.4977 12.7616 53.5819 13.1889C52.6588 13.6162 51.677 13.6825 50.6806 13.7046C50.4828 13.6972 50.2776 13.6972 50.0578 13.6972ZM50.2703 12.1281C50.4036 12.1197 50.5345 12.1131 50.6636 12.1066C50.9885 12.0903 51.3017 12.0745 51.6111 12.0323C51.9041 11.9955 52.1972 11.9071 52.461 11.7819C52.7467 11.6566 52.8859 11.3914 52.8419 11.0673C52.798 10.7579 52.5928 10.6105 52.3071 10.5369C51.4426 10.3011 50.3656 11.0967 50.2703 12.1281ZM55.2816 15.0748C55.1864 15.5757 55.0984 16.0693 55.0032 16.6145C55.1499 16.6145 55.2946 16.6148 55.4375 16.6151C56.0012 16.6163 56.5389 16.6174 57.0766 16.5997C57.1279 16.5997 57.2085 16.4598 57.2231 16.3714C57.2979 16.0034 57.3672 15.6337 57.4364 15.264C57.5641 14.5827 57.6917 13.9017 57.8532 13.2331C58.2122 11.745 58.8203 11.2293 60.2637 11.0377C60.3223 11.0304 60.4175 10.9641 60.4322 10.9125C60.5241 10.4891 60.6065 10.0625 60.6919 9.62C60.7358 9.3926 60.7805 9.16098 60.8278 8.92343C59.4358 8.77609 58.6591 9.58645 57.9851 10.581L57.9958 10.4381C58.029 9.99791 58.0627 9.55001 58.1023 9.07813C57.95 9.07813 57.8005 9.07766 57.6531 9.07719C57.2192 9.07582 56.8036 9.0745 56.3879 9.0855C56.3293 9.09287 56.2194 9.22547 56.2121 9.30651C56.0557 11.2 55.6858 13.0518 55.316 14.9025L55.2816 15.0748Z" fill="black"/>
<path id="Payoneer_3" fill-rule="evenodd" clip-rule="evenodd" d="M35.8838 0.212742C35.8097 0.193058 35.7355 0.173375 35.6613 0.156799C35.4342 0.156799 35.2071 0.156799 34.9653 0.164166C34.8827 0.180774 34.8001 0.198878 34.7169 0.217131C34.6155 0.239361 34.5131 0.26181 34.4085 0.282037C33.2875 0.495677 32.2325 0.886123 31.2141 1.40181C29.0088 2.52158 27.0306 3.97286 25.2576 5.68935C24.078 6.82385 22.9351 8.00993 21.8288 9.22547C19.8872 11.3619 18.2241 13.7119 16.898 16.2903C16.2166 17.6237 15.6012 18.9866 15.3228 20.4674C15.2715 20.7399 15.3594 21.0567 15.4474 21.3293C15.484 21.4398 15.6891 21.5208 15.8283 21.565C15.865 21.5798 15.9749 21.3956 16.0262 21.2925C16.0444 21.2525 16.063 21.2116 16.0821 21.1697C16.4002 20.4709 16.8305 19.5261 17.2038 18.9005C17.9951 17.5744 18.6198 16.5482 19.5063 15.2884C20.9276 13.2625 22.5884 11.2748 24.3321 9.52149C25.9806 7.86393 27.6314 6.38184 29.7048 5.26207C30.6573 4.75375 31.6317 4.2528 32.6281 3.84025C34.3498 3.12566 36.1449 2.63945 37.9911 2.36687C38.189 2.3374 38.4527 2.1827 38.5187 2.02063C38.5773 1.87329 38.4381 1.59335 38.2989 1.45338C37.7347 0.87139 37.0753 0.429375 36.2547 0.296771C36.1311 0.278353 36.0075 0.245548 35.8838 0.212742ZM19.1106 10.2642C19.4623 9.3065 19.6382 8.31197 19.6601 7.2806C19.6504 7.1701 19.6422 7.0596 19.6341 6.9491C19.6178 6.72809 19.6015 6.50708 19.5722 6.28607C19.3744 4.57694 18.6417 3.12566 17.4768 1.88065C17.3376 1.74068 17.1471 1.63018 16.9566 1.56388C16.7662 1.49021 16.6416 1.60071 16.6563 1.82172C16.6566 1.82639 16.657 1.83106 16.6573 1.83574C16.6716 2.02295 16.6865 2.21683 16.7222 2.40371C16.7737 2.69809 16.8248 2.99283 16.876 3.28777C17.0578 4.33613 17.2401 5.38701 17.4402 6.43341C17.638 7.48688 17.8578 8.53298 18.0923 9.57171C18.1729 9.90322 18.3047 10.2347 18.4659 10.5441C18.5905 10.7799 18.7663 10.7578 18.9275 10.5441C19.0008 10.4557 19.074 10.3673 19.1106 10.2642Z" fill="#FC461E"/>
</g>
</svg>
