<svg width="81" height="56" viewBox="0 0 81 56" fill="none" xmlns="http://www.w3.org/2000/svg">
<g id="Payment Icons">
<rect width="81" height="56" rx="6" fill="white"/>
<path id="visa-logo" fill-rule="evenodd" clip-rule="evenodd" d="M25.0221 37.0026H20.2279L16.6328 22.8489C16.4621 22.1978 16.0998 21.6222 15.5669 21.351C14.2368 20.6692 12.7712 20.1267 11.1724 19.853V19.3081H18.8955C19.9614 19.3081 20.7608 20.1267 20.894 21.0773L22.7594 31.2869L27.5513 19.3081H32.2123L25.0221 37.0026ZM34.877 37.0026H30.3493L34.0776 19.3081H38.6053L34.877 37.0026ZM44.4631 24.21C44.5964 23.257 45.3958 22.7121 46.3285 22.7121C47.7941 22.5753 49.3906 22.8489 50.723 23.5283L51.5224 19.7186C50.19 19.1737 48.7244 18.9 47.3944 18.9C42.9999 18.9 39.8021 21.351 39.8021 24.7526C39.8021 27.3404 42.0672 28.6991 43.666 29.5177C45.3958 30.3339 46.062 30.8788 45.9287 31.695C45.9287 32.9193 44.5964 33.4642 43.2663 33.4642C41.6675 33.4642 40.0686 33.0561 38.6053 32.3744L37.8059 36.1864C39.4048 36.8658 41.1345 37.1394 42.7334 37.1394C47.6608 37.2739 50.723 34.8253 50.723 31.1501C50.723 26.5218 44.4631 26.2505 44.4631 24.21ZM66.5689 37.0026L62.9738 19.3081H59.1123C58.3128 19.3081 57.5134 19.853 57.2469 20.6692L50.5897 37.0026H55.2507L56.181 34.4172H61.9079L62.4409 37.0026H66.5689ZM59.7785 24.0732L61.1085 30.742H57.3802L59.7785 24.0732Z" fill="#172B85"/>
</g>
</svg>
